<svg id="svg" version="1.1" xmlns="http://www.w3.org/2000/svg" xmlns:xlink="http://www.w3.org/1999/xlink" width="400" height="409.30232558139534" viewBox="0, 0, 400,409.30232558139534"><g id="svgg"><path id="path0" d="M197.400 167.754 C 188.003 169.019,187.845 169.059,186.015 170.588 C 184.484 171.867,180.672 173.600,179.390 173.600 C 179.071 173.600,178.356 174.319,177.801 175.199 C 177.233 176.099,176.145 177.104,175.312 177.499 C 174.499 177.884,173.368 178.887,172.798 179.728 C 172.229 180.568,171.178 181.626,170.462 182.079 C 169.747 182.532,168.719 183.776,168.179 184.842 C 167.623 185.938,166.708 187.034,166.075 187.361 C 165.222 187.802,164.673 188.679,163.777 191.028 C 163.130 192.727,162.008 194.763,161.283 195.554 C 160.559 196.345,159.886 197.354,159.788 197.796 C 159.227 200.314,157.540 210.230,157.513 211.164 C 157.496 211.787,158.071 213.167,158.835 214.334 L 160.187 216.400 207.060 216.400 L 253.934 216.400 255.511 214.038 L 257.088 211.677 256.351 208.338 C 255.946 206.502,255.335 203.380,254.995 201.400 C 254.332 197.548,253.715 195.600,253.157 195.600 C 252.611 195.600,250.841 192.710,249.949 190.363 C 249.430 188.997,248.576 187.743,247.591 186.900 C 246.742 186.173,245.921 185.182,245.767 184.697 C 245.423 183.612,239.172 177.372,238.082 177.026 C 237.646 176.888,236.827 176.076,236.263 175.223 C 235.547 174.142,234.836 173.585,233.918 173.386 C 232.448 173.068,228.861 171.252,226.952 169.860 C 223.833 167.585,207.364 166.412,197.400 167.754 M45.342 216.286 C 42.545 216.638,42.367 227.918,45.033 235.861 C 45.666 237.746,46.339 241.600,46.991 247.067 C 48.106 256.418,48.289 257.243,49.739 259.441 C 50.839 261.106,51.758 264.577,52.216 268.800 C 52.576 272.111,52.924 272.997,54.580 274.831 C 55.553 275.907,56.056 276.971,56.390 278.661 C 57.129 282.399,57.531 283.368,59.007 284.979 C 59.771 285.814,60.599 287.240,60.846 288.149 C 62.001 292.396,62.553 293.682,63.823 295.087 C 64.575 295.919,65.566 297.590,66.024 298.800 C 66.508 300.077,67.501 301.621,68.393 302.480 C 69.704 303.744,71.600 307.474,71.600 308.788 C 71.600 308.985,72.162 309.546,72.850 310.035 C 73.562 310.542,74.503 311.837,75.037 313.045 C 75.552 314.211,76.449 315.476,77.029 315.856 C 77.608 316.235,78.818 317.548,79.717 318.773 C 80.616 319.998,81.661 321.224,82.040 321.498 C 82.418 321.771,83.408 322.941,84.239 324.098 C 85.070 325.254,86.697 327.212,87.854 328.449 C 89.012 329.686,90.072 331.126,90.210 331.649 C 90.367 332.246,91.083 332.898,92.130 333.400 C 93.048 333.840,94.216 334.830,94.725 335.600 C 95.235 336.370,96.135 337.249,96.726 337.553 C 97.317 337.857,98.790 339.032,100.000 340.163 C 101.210 341.295,103.148 342.909,104.307 343.750 C 105.466 344.590,106.599 345.624,106.824 346.046 C 107.050 346.468,108.203 347.359,109.385 348.026 C 110.568 348.694,112.009 349.861,112.588 350.620 C 113.167 351.379,113.956 352.000,114.342 352.000 C 115.491 352.000,119.001 353.925,120.098 355.157 C 120.660 355.787,121.993 356.617,123.060 357.000 C 124.162 357.396,125.611 358.347,126.415 359.204 C 127.555 360.419,128.445 360.882,131.015 361.600 C 134.679 362.623,135.422 362.957,136.800 364.200 C 137.817 365.117,140.077 365.945,143.959 366.821 C 145.330 367.130,146.643 367.773,147.559 368.582 C 149.291 370.113,150.678 370.669,153.600 371.003 C 157.392 371.437,160.410 372.357,162.160 373.614 C 163.652 374.685,164.608 374.945,170.362 375.843 C 173.944 376.401,178.163 377.305,179.738 377.850 C 186.006 380.021,187.202 380.124,206.600 380.157 C 225.377 380.190,228.990 379.947,232.559 378.418 C 235.121 377.319,239.244 376.496,245.600 375.813 C 252.842 375.035,254.075 374.745,255.608 373.454 C 256.780 372.469,260.169 371.200,261.630 371.200 C 262.990 371.200,267.522 369.581,267.738 369.018 C 268.040 368.231,269.778 367.383,273.500 366.208 C 275.822 365.474,276.857 364.919,277.483 364.073 C 278.081 363.263,279.245 362.607,281.464 361.827 C 283.189 361.221,285.140 360.222,285.800 359.607 C 287.126 358.372,288.817 357.452,290.507 357.047 C 291.116 356.901,292.404 356.002,293.370 355.050 C 294.355 354.079,296.250 352.830,297.688 352.204 C 299.397 351.459,300.468 350.708,300.904 349.948 C 301.312 349.237,302.381 348.445,303.746 347.841 C 304.949 347.309,306.236 346.412,306.606 345.847 C 306.976 345.283,308.175 344.303,309.270 343.671 C 311.244 342.531,314.103 340.079,318.981 335.341 C 320.374 333.988,321.893 332.761,322.357 332.614 C 322.821 332.467,323.200 332.184,323.200 331.987 C 323.200 331.313,325.594 328.900,326.728 328.430 C 327.437 328.136,328.179 327.304,328.714 326.202 C 329.184 325.235,330.470 323.448,331.571 322.232 C 332.672 321.017,333.940 319.301,334.390 318.420 C 334.839 317.540,335.763 316.410,336.443 315.910 C 337.123 315.409,338.043 314.280,338.487 313.400 C 339.500 311.389,340.361 310.400,341.463 309.978 C 341.998 309.773,342.435 309.145,342.612 308.324 C 343.054 306.282,344.586 303.515,345.944 302.309 C 346.734 301.608,347.398 300.443,347.804 299.044 C 348.152 297.848,349.013 296.110,349.718 295.181 C 351.911 292.291,352.378 291.463,352.984 289.389 C 353.322 288.230,354.082 286.888,354.776 286.223 C 356.146 284.910,356.542 283.884,357.379 279.469 C 357.932 276.557,359.244 273.600,359.984 273.600 C 360.504 273.600,361.125 271.650,361.958 267.400 C 362.669 263.774,363.406 261.680,364.982 258.800 C 365.525 257.808,365.864 255.864,366.967 247.400 C 367.282 244.980,368.023 241.380,368.614 239.400 C 370.038 234.622,371.229 221.602,370.421 219.650 L 369.903 218.400 332.766 218.400 C 293.162 218.400,292.883 218.413,290.720 220.350 C 290.566 220.488,290.069 224.650,289.617 229.600 C 288.782 238.729,288.218 241.317,286.776 242.621 C 286.339 243.017,285.703 244.344,285.362 245.570 C 285.021 246.797,284.480 248.744,284.160 249.898 C 283.840 251.052,283.026 252.626,282.351 253.395 C 281.675 254.164,280.686 256.084,280.152 257.662 C 279.499 259.591,278.661 261.095,277.591 262.256 C 276.716 263.205,276.000 264.179,276.000 264.419 C 276.000 265.098,273.551 268.493,272.304 269.542 C 271.688 270.060,270.717 271.281,270.146 272.256 C 269.575 273.230,268.603 274.288,267.986 274.607 C 267.369 274.926,266.188 276.012,265.363 277.019 C 264.537 278.027,263.384 279.098,262.800 279.400 C 262.215 279.702,260.851 280.796,259.769 281.830 C 258.686 282.864,256.810 284.162,255.600 284.715 C 254.390 285.268,252.905 286.308,252.300 287.026 C 251.582 287.876,250.245 288.695,248.457 289.378 C 246.949 289.954,245.284 290.887,244.758 291.450 C 243.441 292.857,243.036 293.037,238.605 294.189 C 236.183 294.818,234.275 295.570,233.546 296.184 C 231.490 297.914,229.439 298.235,212.800 299.430 C 205.057 299.985,202.624 300.023,199.000 299.640 C 196.580 299.385,191.720 298.911,188.200 298.587 C 180.141 297.845,179.138 297.598,177.252 295.895 C 176.238 294.978,174.985 294.336,173.559 294.001 C 170.810 293.356,170.166 293.021,168.158 291.188 C 167.107 290.230,165.687 289.449,164.213 289.021 C 162.829 288.619,161.490 287.905,160.855 287.230 C 160.275 286.614,158.540 285.453,157.000 284.651 C 155.164 283.695,153.891 282.715,153.302 281.806 C 152.809 281.043,151.684 280.051,150.802 279.601 C 149.911 279.146,148.758 278.084,148.205 277.207 C 147.657 276.340,146.657 275.222,145.981 274.723 C 145.305 274.223,144.233 272.911,143.599 271.807 C 142.964 270.703,141.622 268.900,140.616 267.800 C 139.609 266.700,138.580 265.123,138.328 264.295 C 138.045 263.364,137.247 262.277,136.235 261.444 C 135.136 260.540,134.375 259.459,133.914 258.149 C 133.537 257.077,132.528 255.272,131.672 254.137 C 130.416 252.471,129.943 251.314,129.221 248.137 C 128.693 245.811,127.917 243.595,127.324 242.722 C 125.710 240.342,125.179 238.205,124.565 231.613 C 123.389 218.994,123.176 218.233,120.393 216.741 C 119.101 216.048,50.540 215.633,45.342 216.286 " stroke="none" fill="#f7f9f9" fill-rule="evenodd"></path><path id="path1" d="M187.432 52.851 C 185.117 53.074,182.780 53.612,180.774 54.386 C 176.496 56.036,167.563 57.466,160.738 57.595 C 160.594 57.598,159.726 58.227,158.809 58.992 C 157.107 60.414,156.514 60.629,151.090 61.792 C 148.597 62.327,147.636 62.757,146.241 63.965 C 144.762 65.245,143.969 65.575,140.951 66.167 C 137.705 66.804,137.280 66.998,136.000 68.431 C 134.795 69.780,134.127 70.121,131.200 70.881 C 129.330 71.367,127.733 71.930,127.650 72.132 C 127.136 73.391,125.098 74.825,122.751 75.580 C 121.022 76.136,119.632 76.901,118.749 77.785 C 118.004 78.529,116.350 79.529,115.073 80.007 C 113.559 80.573,112.637 81.176,112.422 81.738 C 112.013 82.806,111.019 83.692,109.200 84.610 C 108.430 84.999,106.900 86.127,105.800 87.118 C 104.700 88.109,102.855 89.341,101.700 89.855 C 100.545 90.369,99.600 91.029,99.600 91.320 C 99.600 91.981,97.771 93.716,96.270 94.480 C 95.648 94.796,94.743 95.762,94.258 96.627 C 93.739 97.554,92.743 98.530,91.833 99.004 C 90.984 99.446,90.123 100.256,89.920 100.804 C 89.435 102.115,88.176 103.426,86.860 103.990 C 86.244 104.254,85.465 105.148,85.000 106.122 C 84.560 107.044,83.578 108.211,82.817 108.715 C 81.988 109.265,80.905 110.626,80.110 112.116 C 79.381 113.482,78.154 115.180,77.384 115.888 C 76.613 116.596,75.636 117.983,75.213 118.969 C 74.701 120.163,73.924 121.091,72.884 121.747 C 71.666 122.516,71.210 123.136,70.808 124.570 C 70.517 125.611,69.599 127.197,68.692 128.228 C 67.811 129.229,66.605 131.252,66.013 132.724 C 65.255 134.605,64.568 135.638,63.698 136.200 C 62.673 136.863,62.343 137.480,61.775 139.800 C 60.904 143.362,60.621 143.936,59.017 145.400 C 57.925 146.397,57.558 147.207,56.849 150.186 C 56.166 153.055,55.727 154.054,54.655 155.186 C 53.008 156.923,52.929 157.144,52.187 162.090 C 51.540 166.392,51.234 167.229,49.706 168.869 C 48.531 170.130,47.615 173.630,47.606 176.892 C 47.597 180.227,46.474 185.435,45.158 188.243 C 43.497 191.789,43.183 195.047,43.061 210.000 C 43.002 217.370,43.007 222.770,43.073 222.000 C 43.139 221.230,43.385 219.668,43.619 218.529 L 44.044 216.459 46.522 216.208 C 47.885 216.071,64.944 216.012,84.431 216.079 L 119.863 216.200 121.348 217.333 C 122.285 218.048,122.933 218.934,123.102 219.733 C 123.545 221.819,123.906 218.622,124.357 208.600 C 124.792 198.947,125.258 196.575,127.134 194.474 C 128.104 193.387,128.395 192.509,128.985 188.892 C 129.832 183.691,130.338 182.383,131.945 181.239 C 132.770 180.652,133.324 179.802,133.612 178.680 C 134.513 175.181,134.919 174.308,136.269 172.958 C 137.033 172.194,138.081 170.612,138.598 169.442 C 139.240 167.992,139.973 167.059,140.901 166.511 C 141.736 166.019,142.638 164.951,143.232 163.754 C 143.764 162.679,144.746 161.446,145.414 161.013 C 146.082 160.579,146.892 159.681,147.214 159.016 C 147.536 158.352,148.430 157.405,149.200 156.913 C 150.751 155.922,150.793 155.884,152.121 154.243 C 152.635 153.607,153.851 152.793,154.821 152.434 C 155.795 152.075,156.783 151.385,157.028 150.894 C 157.834 149.278,158.870 148.441,160.901 147.766 C 162.006 147.400,163.559 146.517,164.354 145.804 C 165.969 144.358,168.032 143.200,168.996 143.200 C 169.943 143.200,172.669 141.718,172.918 141.068 C 173.289 140.102,176.544 138.805,180.201 138.166 C 182.865 137.701,184.049 137.281,185.151 136.410 C 187.309 134.704,190.219 134.034,196.564 133.780 C 208.402 133.306,207.200 138.147,207.200 90.925 L 207.200 53.266 205.180 52.833 C 202.860 52.336,192.689 52.346,187.432 52.851 M204.200 165.388 C 200.634 166.145,194.801 167.734,194.969 167.902 C 195.049 167.982,197.849 167.733,201.191 167.349 C 206.937 166.687,207.576 166.686,212.934 167.328 C 216.050 167.701,218.870 167.993,219.200 167.977 C 219.852 167.945,214.178 166.360,210.000 165.407 C 207.005 164.724,207.323 164.725,204.200 165.388 M192.500 168.276 C 192.885 168.376,193.515 168.376,193.900 168.276 C 194.285 168.175,193.970 168.093,193.200 168.093 C 192.430 168.093,192.115 168.175,192.500 168.276 M223.300 168.676 C 223.685 168.776,224.315 168.776,224.700 168.676 C 225.085 168.575,224.770 168.493,224.000 168.493 C 223.230 168.493,222.915 168.575,223.300 168.676 M186.417 169.325 C 185.877 169.584,184.891 170.293,184.226 170.900 C 183.562 171.507,182.204 172.292,181.209 172.644 C 178.338 173.661,177.630 174.076,177.369 174.896 C 177.235 175.319,176.374 176.145,175.455 176.732 C 173.343 178.083,169.134 182.287,167.836 184.343 C 167.290 185.207,166.308 186.296,165.652 186.763 C 164.882 187.311,164.224 188.324,163.791 189.626 C 163.423 190.734,162.488 192.472,161.713 193.487 C 160.010 195.718,159.184 197.593,159.246 199.087 C 159.279 199.875,159.342 199.966,159.462 199.400 C 159.555 198.960,159.707 198.238,159.799 197.796 C 159.891 197.354,160.559 196.345,161.283 195.554 C 162.008 194.763,163.130 192.727,163.777 191.028 C 164.673 188.679,165.222 187.802,166.075 187.361 C 166.708 187.034,167.623 185.938,168.179 184.842 C 168.719 183.776,169.747 182.532,170.462 182.079 C 171.178 181.626,172.229 180.568,172.798 179.728 C 173.368 178.887,174.499 177.884,175.312 177.499 C 176.145 177.104,177.233 176.099,177.801 175.199 C 178.356 174.319,179.071 173.600,179.390 173.600 C 180.616 173.600,184.525 171.866,185.777 170.767 C 186.498 170.134,187.518 169.444,188.044 169.233 C 188.869 168.903,188.890 168.851,188.200 168.852 C 187.760 168.853,186.958 169.066,186.417 169.325 M226.841 169.785 C 228.672 171.112,232.655 173.206,233.289 173.175 C 233.570 173.161,233.381 172.981,232.869 172.776 C 232.357 172.571,231.181 171.783,230.256 171.025 C 228.662 169.719,226.870 168.800,225.915 168.800 C 225.677 168.800,226.093 169.243,226.841 169.785 M234.647 173.593 C 235.113 173.781,235.887 174.571,236.367 175.347 C 236.847 176.123,237.608 176.875,238.057 177.018 C 239.165 177.370,245.418 183.598,245.767 184.697 C 245.921 185.182,246.742 186.173,247.591 186.900 C 248.576 187.743,249.430 188.997,249.949 190.363 C 250.841 192.710,252.611 195.600,253.157 195.600 C 253.507 195.600,254.208 197.131,254.531 198.600 C 254.686 199.305,254.713 199.292,254.754 198.487 C 254.822 197.144,253.775 194.896,252.169 192.936 C 251.391 191.987,250.475 190.389,250.133 189.384 C 249.762 188.295,249.028 187.203,248.315 186.679 C 247.658 186.195,246.782 185.170,246.370 184.400 C 245.957 183.630,244.172 181.650,242.403 180.000 C 240.635 178.350,238.271 176.145,237.150 175.100 C 236.030 174.055,234.818 173.211,234.457 173.225 C 233.978 173.244,234.030 173.344,234.647 173.593 M255.041 201.400 C 255.170 202.500,255.685 205.260,256.186 207.533 L 257.095 211.666 255.515 214.033 L 253.934 216.400 207.060 216.400 L 160.187 216.400 158.835 214.334 C 157.309 212.004,157.274 211.554,158.217 206.422 C 158.588 204.407,158.780 202.647,158.645 202.512 C 158.510 202.377,158.400 202.629,158.400 203.073 C 158.400 203.516,157.739 205.661,156.931 207.839 L 155.463 211.800 156.726 216.800 C 157.421 219.550,158.185 223.690,158.424 226.000 C 158.915 230.760,159.670 233.566,161.008 235.600 C 161.514 236.370,162.620 238.530,163.464 240.399 C 164.329 242.314,165.638 244.437,166.461 245.260 C 167.264 246.063,168.054 247.140,168.216 247.652 C 168.536 248.660,174.943 255.200,175.611 255.200 C 175.835 255.200,176.799 255.920,177.754 256.800 C 178.709 257.680,180.999 259.124,182.845 260.010 C 184.690 260.895,186.650 261.970,187.200 262.398 C 188.501 263.412,198.591 265.682,205.600 266.538 C 209.249 266.984,225.808 263.646,227.654 262.093 C 228.301 261.549,230.199 260.508,231.873 259.781 C 233.635 259.015,235.510 257.846,236.329 257.002 C 237.107 256.202,238.230 255.295,238.824 254.988 C 239.418 254.680,240.389 253.854,240.980 253.151 C 241.571 252.448,242.759 251.363,243.619 250.740 C 244.479 250.117,245.617 248.751,246.148 247.704 C 246.679 246.657,247.501 245.450,247.975 245.021 C 248.449 244.593,249.565 242.709,250.456 240.834 C 251.347 238.960,252.482 236.943,252.979 236.352 C 254.085 235.038,254.942 231.724,255.811 225.403 C 256.174 222.765,256.905 219.277,257.436 217.652 C 258.786 213.514,258.718 210.725,257.170 206.867 C 256.493 205.180,255.685 202.810,255.373 201.600 L 254.806 199.400 255.041 201.400 M202.100 299.894 C 203.145 299.976,204.855 299.976,205.900 299.894 C 206.945 299.812,206.090 299.744,204.000 299.744 C 201.910 299.744,201.055 299.812,202.100 299.894 M313.781 340.100 L 312.200 341.800 313.900 340.219 C 315.481 338.748,315.784 338.400,315.481 338.400 C 315.416 338.400,314.651 339.165,313.781 340.100 " stroke="none" fill="#5ededf" fill-rule="evenodd"></path><path id="path2" d="M0.000 204.600 L 0.000 409.200 200.000 409.200 L 400.000 409.200 400.000 204.600 L 400.000 0.000 200.000 0.000 L 0.000 0.000 0.000 204.600 M207.786 50.568 C 210.600 51.744,210.449 49.209,210.318 93.115 C 210.175 140.891,211.523 135.457,199.680 136.011 C 194.319 136.262,192.561 136.480,191.880 136.980 C 191.396 137.336,190.408 138.057,189.685 138.583 C 188.205 139.661,185.281 140.399,182.480 140.402 C 179.470 140.406,177.863 141.039,176.472 142.771 C 175.414 144.087,174.838 144.416,172.905 144.812 C 169.508 145.508,168.686 145.910,167.800 147.309 C 166.990 148.589,165.050 149.578,161.747 150.396 C 160.454 150.716,159.982 151.077,159.577 152.056 C 159.194 152.979,158.506 153.551,156.946 154.241 C 155.521 154.871,154.629 155.570,154.205 156.390 C 153.860 157.058,152.856 158.060,151.974 158.616 C 151.092 159.173,150.026 160.207,149.604 160.914 C 149.182 161.621,148.078 162.745,147.151 163.411 C 146.102 164.164,145.288 165.148,145.000 166.011 C 144.702 166.901,143.939 167.803,142.878 168.520 C 141.605 169.380,141.121 170.029,140.791 171.320 C 140.061 174.181,139.536 175.194,138.199 176.317 C 136.646 177.621,136.261 178.340,135.596 181.171 C 135.239 182.690,134.629 183.838,133.562 184.995 C 131.648 187.072,131.200 188.249,131.200 191.206 C 131.200 194.855,130.489 197.423,128.902 199.501 C 126.916 202.103,126.820 202.823,126.813 215.200 C 126.804 229.288,127.108 232.082,128.978 235.114 C 129.844 236.518,130.551 238.326,130.811 239.800 C 132.229 247.845,132.482 248.762,133.464 249.405 C 134.596 250.147,135.265 251.520,136.429 255.500 C 136.978 257.374,137.483 258.400,137.857 258.400 C 138.817 258.400,140.317 260.206,140.778 261.918 C 141.091 263.080,141.587 263.749,142.561 264.324 C 143.422 264.832,144.381 266.004,145.211 267.560 C 145.926 268.902,146.651 270.000,146.821 270.000 C 146.992 270.000,148.336 271.445,149.809 273.211 C 151.282 274.976,153.282 276.968,154.254 277.637 C 155.226 278.306,156.708 279.568,157.547 280.441 C 158.396 281.325,159.944 282.356,161.037 282.765 C 162.317 283.245,163.317 283.962,163.912 284.827 C 164.660 285.915,165.355 286.307,167.771 287.004 C 171.120 287.970,172.627 288.826,172.990 289.969 C 173.275 290.868,173.110 290.806,178.993 292.204 C 181.466 292.791,184.274 293.756,185.420 294.411 C 188.533 296.193,192.668 296.520,209.082 296.286 C 223.701 296.078,225.434 295.884,227.145 294.265 C 228.369 293.107,231.175 292.260,236.083 291.567 C 239.402 291.099,239.623 291.005,240.794 289.548 C 241.825 288.264,242.569 287.848,245.428 286.957 C 248.188 286.097,248.941 285.688,249.399 284.802 C 249.948 283.741,252.125 282.400,253.298 282.400 C 253.615 282.400,254.634 281.500,255.561 280.400 C 256.489 279.300,257.479 278.400,257.762 278.400 C 258.045 278.400,259.262 277.455,260.465 276.300 C 261.669 275.145,263.785 273.139,265.169 271.841 C 266.553 270.544,268.307 268.510,269.068 267.321 C 269.828 266.133,270.859 264.974,271.359 264.746 C 272.339 264.299,273.600 262.455,273.600 261.469 C 273.600 260.684,275.518 258.400,276.177 258.400 C 276.478 258.400,277.106 256.834,277.727 254.532 C 278.577 251.384,279.038 250.390,280.203 249.196 C 281.431 247.940,281.741 247.219,282.371 244.165 C 283.488 238.748,283.971 237.180,285.194 235.000 C 286.523 232.633,286.699 231.644,287.166 223.917 C 287.864 212.357,283.415 213.429,331.325 213.286 L 370.050 213.170 371.362 214.485 C 374.741 217.870,374.042 245.427,370.478 249.344 C 369.501 250.418,368.914 253.126,368.603 258.000 C 368.303 262.701,367.530 265.550,366.224 266.778 C 365.181 267.757,364.277 270.379,363.802 273.800 C 363.433 276.456,362.744 278.021,361.287 279.511 C 360.322 280.498,359.985 281.328,359.596 283.672 C 358.951 287.555,358.278 289.077,356.844 289.901 C 356.020 290.374,355.575 291.006,355.397 291.959 C 354.803 295.123,353.541 297.662,352.154 298.480 C 351.341 298.960,350.701 299.708,350.561 300.341 C 349.725 304.140,348.691 306.284,347.418 306.864 C 346.516 307.276,346.024 308.060,344.681 311.236 C 344.301 312.135,343.631 312.856,342.893 313.162 C 342.024 313.521,341.582 314.084,341.222 315.285 C 340.941 316.223,339.914 317.790,338.815 318.960 C 337.761 320.082,336.444 321.903,335.890 323.007 C 335.278 324.224,334.288 325.404,333.373 326.007 C 332.544 326.553,331.736 327.270,331.579 327.600 C 331.421 327.930,331.047 328.723,330.746 329.362 C 330.446 330.001,329.629 330.762,328.932 331.054 C 328.234 331.346,327.148 332.353,326.518 333.292 C 325.883 334.240,324.715 335.311,323.895 335.699 C 322.924 336.158,322.132 336.958,321.585 338.029 C 321.046 339.086,320.292 339.853,319.445 340.207 C 318.074 340.780,317.317 341.509,316.606 342.943 C 316.372 343.414,315.285 344.285,314.190 344.878 C 313.096 345.470,311.840 346.372,311.400 346.881 C 310.217 348.250,308.161 349.618,306.183 350.351 C 305.045 350.773,304.109 351.489,303.505 352.400 C 302.870 353.357,302.039 353.971,300.877 354.341 C 299.788 354.688,298.788 355.393,298.094 356.303 C 297.074 357.641,292.956 359.999,291.639 360.000 C 291.330 360.000,290.430 360.697,289.639 361.550 C 288.494 362.782,287.563 363.290,285.086 364.031 C 282.625 364.766,281.765 365.232,280.987 366.252 C 280.237 367.235,279.312 367.761,277.108 368.457 C 275.315 369.023,273.668 369.864,272.777 370.668 C 271.014 372.261,270.167 372.593,265.755 373.420 C 262.759 373.981,262.107 374.254,261.030 375.396 C 259.537 376.979,258.041 377.421,252.200 378.003 C 246.767 378.544,246.008 378.717,244.989 379.639 C 242.953 381.480,238.637 382.115,223.547 382.790 C 218.568 383.013,213.078 383.413,211.347 383.679 C 207.497 384.271,206.203 384.271,202.540 383.678 C 200.968 383.423,194.300 382.944,187.722 382.613 C 175.040 381.975,172.683 381.591,170.846 379.862 C 169.769 378.849,167.512 378.252,163.000 377.787 C 159.308 377.405,156.539 376.498,155.032 375.175 C 154.123 374.376,152.943 373.839,151.530 373.579 C 150.359 373.364,148.321 372.988,147.001 372.745 C 145.086 372.391,144.336 372.020,143.283 370.904 C 142.160 369.712,141.448 369.392,138.482 368.738 C 133.695 367.684,133.696 367.684,132.045 366.193 C 131.162 365.395,129.480 364.513,127.816 363.976 C 125.362 363.183,123.200 361.683,123.200 360.773 C 123.200 360.602,122.525 360.246,121.700 359.983 C 118.121 358.838,116.386 357.872,115.585 356.575 C 114.954 355.555,114.274 355.104,112.661 354.635 C 111.343 354.252,109.926 353.439,108.861 352.456 C 107.927 351.594,106.186 350.240,104.993 349.448 C 103.800 348.656,102.522 347.548,102.155 346.987 C 101.787 346.426,100.688 345.500,99.713 344.928 C 98.738 344.356,97.499 343.191,96.960 342.337 C 96.342 341.358,95.416 340.560,94.451 340.174 C 93.423 339.762,92.668 339.083,92.153 338.104 C 91.692 337.228,90.750 336.318,89.793 335.823 C 88.766 335.292,87.936 334.459,87.456 333.477 C 87.041 332.627,86.012 331.513,85.126 330.953 C 84.253 330.402,83.286 329.377,82.976 328.676 C 82.245 327.018,81.608 326.242,80.494 325.648 C 79.996 325.383,79.116 324.408,78.539 323.483 C 77.962 322.557,76.676 320.990,75.682 320.000 C 74.687 319.010,73.473 317.337,72.984 316.283 C 72.495 315.229,71.458 313.789,70.680 313.083 C 69.767 312.256,69.029 311.056,68.602 309.706 C 68.152 308.283,67.550 307.334,66.723 306.745 C 65.510 305.882,63.611 302.438,63.604 301.088 C 63.602 300.696,62.735 299.526,61.677 298.488 C 59.983 296.826,59.669 296.242,59.043 293.600 C 58.476 291.201,58.066 290.355,57.000 289.377 C 55.684 288.169,54.836 286.005,54.206 282.253 C 54.047 281.309,53.507 280.295,52.820 279.653 C 51.162 278.103,50.548 276.614,49.825 272.392 C 49.336 269.531,48.893 268.203,48.024 266.984 C 46.645 265.052,45.735 262.011,45.394 258.200 C 44.934 253.054,44.455 251.101,43.376 249.975 C 40.996 247.490,40.200 234.318,40.743 206.400 C 41.156 185.165,41.288 183.972,43.514 181.436 C 44.898 179.861,45.061 179.170,45.415 173.400 C 45.719 168.442,46.179 166.804,47.804 164.897 C 49.315 163.123,49.842 161.562,50.181 157.848 C 50.472 154.666,51.122 153.195,52.748 152.037 C 53.704 151.356,53.995 150.738,54.408 148.506 C 55.027 145.165,56.030 143.097,57.317 142.511 C 58.108 142.150,58.436 141.494,59.005 139.132 C 59.910 135.375,60.542 134.154,61.958 133.422 C 63.084 132.839,63.600 132.073,63.600 130.982 C 63.600 129.268,65.311 126.014,66.617 125.243 C 67.568 124.682,68.292 123.761,68.945 122.285 C 69.616 120.769,70.318 119.891,71.347 119.285 C 72.149 118.811,72.802 118.107,72.804 117.713 C 72.811 116.383,74.721 112.882,75.926 111.992 C 76.585 111.504,77.594 110.243,78.167 109.189 C 78.744 108.129,79.807 106.921,80.546 106.485 C 81.281 106.051,82.409 104.913,83.052 103.954 C 83.696 102.996,84.603 102.023,85.068 101.791 C 86.495 101.080,87.222 100.321,87.796 98.948 C 88.154 98.091,88.875 97.382,89.861 96.916 C 90.803 96.471,91.711 95.603,92.260 94.623 C 92.760 93.731,93.764 92.728,94.573 92.313 C 95.360 91.909,96.452 90.868,97.001 89.998 C 97.556 89.119,98.709 88.055,99.596 87.602 C 100.473 87.154,101.778 86.136,102.496 85.339 C 103.650 84.056,107.923 81.601,109.002 81.600 C 109.224 81.600,109.632 81.087,109.910 80.459 C 110.196 79.813,111.063 79.006,111.907 78.600 C 112.728 78.205,113.793 77.684,114.274 77.441 C 114.754 77.198,115.568 76.370,116.082 75.600 C 116.914 74.355,117.383 74.111,120.314 73.397 C 123.202 72.694,123.707 72.436,124.388 71.317 C 125.301 69.814,126.588 69.094,129.600 68.401 C 132.378 67.761,133.085 67.393,133.391 66.427 C 133.739 65.333,136.564 64.115,139.497 63.795 C 141.777 63.546,142.100 63.388,143.209 61.988 C 144.536 60.313,145.748 59.805,149.400 59.391 C 152.144 59.080,152.988 58.707,154.425 57.171 C 156.003 55.484,158.965 54.800,164.685 54.800 C 169.987 54.800,171.718 54.378,173.600 52.627 C 175.824 50.558,179.354 50.140,195.313 50.057 C 204.114 50.012,206.709 50.118,207.786 50.568 M213.065 161.994 C 217.310 162.376,219.594 163.079,221.054 164.451 C 221.675 165.034,223.189 165.477,226.410 166.019 C 231.162 166.818,232.557 167.429,233.286 169.030 C 233.613 169.746,234.332 170.191,235.908 170.649 C 237.385 171.078,238.739 171.876,240.140 173.143 C 241.273 174.168,242.969 175.623,243.908 176.376 C 244.847 177.130,246.366 178.749,247.284 179.973 C 248.201 181.198,249.617 182.920,250.429 183.800 C 251.248 184.687,252.206 186.327,252.579 187.481 C 253.003 188.793,253.534 189.652,254.015 189.805 C 255.280 190.206,256.328 191.917,256.785 194.324 C 257.540 198.299,257.981 199.495,259.155 200.751 C 262.426 204.254,262.061 225.160,258.633 230.600 C 258.356 231.040,257.727 232.900,257.236 234.734 C 256.139 238.827,255.136 241.223,254.193 242.006 C 253.799 242.333,252.991 243.682,252.398 245.005 C 250.390 249.481,240.134 259.917,236.016 261.676 C 235.017 262.103,233.750 262.878,233.200 263.400 C 232.004 264.535,230.915 264.982,226.291 266.237 C 224.361 266.761,222.291 267.552,221.691 267.996 C 217.652 270.980,197.465 270.999,192.630 268.022 C 191.954 267.605,189.707 266.789,187.638 266.208 C 183.839 265.143,181.068 263.958,180.599 263.198 C 180.458 262.971,179.418 262.316,178.287 261.743 C 173.477 259.305,164.218 250.003,161.806 245.185 C 161.204 243.983,160.380 242.638,159.975 242.195 C 158.937 241.060,158.206 239.157,157.038 234.549 C 156.480 232.349,155.564 229.543,155.001 228.315 C 151.863 221.461,151.736 205.926,154.786 202.000 C 156.002 200.435,156.606 198.752,157.005 195.815 C 157.398 192.923,158.334 190.884,159.617 190.126 C 160.392 189.668,161.007 188.739,161.587 187.147 C 162.140 185.631,162.843 184.539,163.625 183.982 C 164.281 183.515,165.159 182.465,165.575 181.649 C 166.331 180.167,171.051 175.200,171.703 175.200 C 171.893 175.200,172.982 174.325,174.124 173.255 C 175.451 172.011,176.937 171.069,178.242 170.642 C 179.629 170.188,180.424 169.665,180.723 169.008 C 181.449 167.416,182.860 166.815,187.834 165.978 C 191.028 165.440,192.835 164.938,193.385 164.437 C 196.052 162.005,203.265 161.110,213.065 161.994 " stroke="none" fill="#04040c" fill-rule="evenodd"></path><path id="path3" d="M188.800 52.015 C 182.086 52.320,179.604 52.753,177.524 53.980 C 174.708 55.641,172.677 56.090,166.497 56.416 C 160.054 56.755,159.503 56.908,156.136 59.288 C 155.067 60.044,153.387 60.619,150.630 61.174 C 147.209 61.862,146.465 62.161,145.231 63.339 C 143.313 65.170,142.653 65.454,139.559 65.776 C 137.058 66.036,136.820 66.154,135.093 67.984 C 133.406 69.771,133.056 69.952,130.423 70.396 C 127.846 70.831,127.459 71.023,126.330 72.427 C 125.100 73.957,123.621 74.712,120.120 75.596 C 118.999 75.879,118.152 76.425,117.573 77.237 C 117.097 77.907,115.712 78.925,114.496 79.501 C 113.093 80.166,112.014 81.008,111.542 81.809 C 111.081 82.590,109.921 83.512,108.499 84.228 C 107.234 84.864,105.465 86.059,104.566 86.882 C 103.668 87.706,102.185 88.715,101.271 89.124 C 100.357 89.533,99.195 90.482,98.689 91.234 C 98.183 91.985,97.007 93.021,96.075 93.535 C 95.041 94.106,94.088 95.043,93.631 95.939 C 93.187 96.809,92.212 97.783,91.234 98.333 C 90.197 98.915,89.377 99.758,89.024 100.605 C 88.702 101.376,87.779 102.382,86.866 102.958 C 85.988 103.512,84.886 104.648,84.417 105.483 C 83.947 106.317,82.945 107.404,82.191 107.898 C 81.436 108.391,80.431 109.561,79.958 110.498 C 79.484 111.434,78.384 112.978,77.513 113.929 C 76.643 114.880,75.517 116.590,75.012 117.729 C 74.454 118.987,73.454 120.312,72.463 121.106 C 71.566 121.824,70.484 123.200,70.057 124.163 C 69.631 125.127,68.717 126.333,68.027 126.844 C 67.067 127.553,66.569 128.436,65.917 130.586 C 65.228 132.857,64.703 133.748,63.194 135.204 C 61.465 136.872,61.304 137.198,61.035 139.568 C 60.768 141.934,60.597 142.281,58.788 144.128 C 57.198 145.752,56.783 146.473,56.578 147.964 C 56.122 151.295,55.599 152.730,54.492 153.681 C 52.651 155.264,52.495 155.652,51.802 160.400 C 51.189 164.601,50.128 167.600,49.254 167.600 C 48.246 167.600,47.531 170.300,47.212 175.304 C 46.860 180.824,46.686 181.543,44.802 185.256 C 43.078 188.654,42.776 191.071,42.360 204.800 C 42.150 211.730,41.874 218.903,41.745 220.741 C 41.289 227.267,42.470 237.223,45.004 248.200 C 45.563 250.620,46.206 253.860,46.435 255.400 C 46.931 258.744,47.390 260.332,48.634 263.004 C 49.566 265.005,50.347 267.771,51.198 272.080 C 51.446 273.334,52.089 275.009,52.628 275.803 C 54.103 277.976,55.029 279.983,55.562 282.160 C 56.119 284.436,56.948 286.163,58.207 287.672 C 58.699 288.262,59.577 290.218,60.158 292.019 C 60.907 294.342,61.677 295.819,62.808 297.104 C 63.685 298.100,64.607 299.598,64.857 300.433 C 65.107 301.267,65.998 302.780,66.836 303.794 C 67.674 304.809,68.843 306.665,69.433 307.920 C 70.023 309.174,71.104 310.867,71.836 311.682 C 72.567 312.497,73.516 313.847,73.944 314.682 C 74.372 315.517,75.206 316.650,75.797 317.200 C 76.389 317.750,77.520 319.100,78.312 320.200 C 79.104 321.300,80.572 323.128,81.576 324.263 C 82.579 325.397,84.570 327.716,86.000 329.417 C 87.430 331.117,89.201 333.069,89.936 333.754 C 90.671 334.439,92.221 335.900,93.381 337.000 C 94.541 338.100,96.973 340.260,98.786 341.800 C 100.599 343.340,103.051 345.452,104.237 346.492 C 105.422 347.533,107.158 348.861,108.096 349.443 C 109.033 350.026,110.310 351.013,110.934 351.637 C 111.558 352.262,113.006 353.202,114.152 353.727 C 115.299 354.252,116.883 355.249,117.674 355.943 C 118.464 356.637,120.166 357.667,121.455 358.233 C 122.745 358.798,124.441 359.881,125.225 360.638 C 126.153 361.536,127.760 362.408,129.839 363.143 C 131.594 363.764,133.788 364.821,134.715 365.493 C 135.725 366.224,137.564 366.995,139.301 367.413 C 142.109 368.091,143.555 368.719,146.320 370.464 C 147.045 370.922,149.717 371.807,152.256 372.430 C 154.796 373.054,157.455 373.907,158.164 374.326 C 160.006 375.413,162.830 376.258,167.200 377.032 C 169.290 377.402,172.260 378.197,173.800 378.798 C 176.417 379.820,179.313 380.465,183.600 380.983 C 187.699 381.478,207.980 382.417,210.200 382.215 C 211.520 382.095,216.415 381.810,221.078 381.582 C 230.816 381.105,235.748 380.449,240.000 379.064 C 243.450 377.940,246.010 377.402,250.800 376.795 C 255.035 376.258,256.521 375.809,258.800 374.378 C 259.790 373.756,262.350 372.793,264.489 372.238 C 267.103 371.559,269.035 370.776,270.384 369.848 C 271.487 369.089,273.587 368.070,275.050 367.583 C 276.561 367.080,278.335 366.134,279.156 365.392 C 279.951 364.674,282.056 363.526,283.834 362.840 C 285.612 362.154,287.475 361.159,287.973 360.629 C 288.471 360.099,289.806 359.267,290.939 358.782 C 292.073 358.296,294.406 356.842,296.125 355.550 C 297.843 354.257,299.488 353.200,299.780 353.200 C 300.072 353.200,301.122 352.400,302.113 351.423 C 303.104 350.446,304.545 349.383,305.314 349.062 C 306.083 348.741,307.407 347.858,308.256 347.102 C 309.105 346.345,310.777 345.074,311.972 344.278 C 314.062 342.885,319.941 337.555,325.626 331.900 C 327.118 330.415,328.500 329.200,328.696 329.200 C 328.892 329.200,329.434 328.525,329.899 327.700 C 330.364 326.875,331.399 325.570,332.198 324.800 C 332.997 324.030,334.212 322.410,334.897 321.200 C 335.583 319.990,337.011 318.040,338.072 316.868 C 339.132 315.695,340.000 314.517,340.000 314.249 C 340.000 313.981,340.736 313.051,341.635 312.181 C 342.534 311.312,343.724 309.700,344.279 308.600 C 344.835 307.500,345.976 305.700,346.814 304.600 C 347.653 303.500,348.714 301.596,349.173 300.368 C 349.631 299.141,350.607 297.431,351.341 296.568 C 352.075 295.706,353.177 293.742,353.789 292.204 C 354.401 290.666,355.498 288.712,356.225 287.863 C 357.255 286.658,357.732 285.510,358.385 282.659 C 358.933 280.265,359.705 278.214,360.619 276.726 C 361.528 275.247,362.373 273.012,363.037 270.326 C 363.598 268.057,364.566 265.300,365.189 264.200 C 366.398 262.063,366.818 260.341,367.821 253.400 C 368.171 250.980,369.081 247.135,369.842 244.855 C 372.173 237.874,373.016 220.858,371.192 217.600 L 370.184 215.800 332.802 215.698 C 285.193 215.568,289.099 214.702,288.359 225.547 C 287.867 232.756,287.005 237.314,285.625 240.000 C 285.004 241.210,284.044 243.856,283.493 245.880 C 282.806 248.404,282.100 250.034,281.249 251.067 C 280.567 251.895,279.533 253.998,278.953 255.742 C 278.306 257.684,277.396 259.471,276.603 260.356 C 275.891 261.150,275.032 262.342,274.694 263.004 C 274.356 263.666,273.020 265.473,271.725 267.018 C 270.430 268.564,268.979 270.463,268.499 271.239 C 268.020 272.015,267.149 272.906,266.565 273.218 C 265.981 273.531,264.850 274.519,264.052 275.413 C 263.253 276.307,261.880 277.563,261.000 278.204 C 260.120 278.845,258.571 280.125,257.557 281.048 C 256.543 281.971,254.923 283.122,253.957 283.605 C 252.991 284.089,251.570 285.084,250.800 285.816 C 250.030 286.549,248.382 287.526,247.137 287.989 C 245.893 288.451,244.273 289.267,243.537 289.802 C 242.802 290.336,241.798 291.068,241.306 291.429 C 240.814 291.789,238.834 292.432,236.906 292.858 C 234.978 293.283,232.230 294.195,230.800 294.884 C 221.987 299.132,189.374 299.034,180.026 294.733 C 178.582 294.068,176.320 293.162,175.000 292.720 C 173.680 292.278,171.586 291.154,170.347 290.223 C 169.108 289.292,167.261 288.297,166.243 288.012 C 165.225 287.727,163.629 286.823,162.696 286.003 C 161.763 285.183,160.010 284.015,158.800 283.408 C 154.853 281.427,147.569 274.349,144.281 269.301 C 143.313 267.815,142.115 266.240,141.618 265.800 C 141.121 265.360,140.355 264.280,139.916 263.400 C 139.477 262.520,138.347 260.990,137.405 260.000 C 136.342 258.882,135.440 257.415,135.024 256.129 C 134.656 254.990,133.654 253.010,132.797 251.729 C 131.601 249.940,131.005 248.404,130.230 245.106 C 129.674 242.744,128.751 239.887,128.178 238.757 C 126.293 235.036,125.531 228.861,125.001 213.000 C 124.653 202.562,125.270 199.020,128.045 195.547 C 128.665 194.771,129.032 193.372,129.442 190.222 C 130.050 185.561,130.270 184.969,132.269 182.620 C 133.076 181.671,133.929 179.983,134.402 178.395 C 134.890 176.756,135.594 175.379,136.252 174.775 C 136.837 174.239,137.906 172.536,138.628 170.991 C 139.501 169.122,140.472 167.754,141.531 166.903 C 142.406 166.200,143.455 164.944,143.861 164.112 C 144.268 163.281,145.160 162.240,145.844 161.800 C 146.529 161.360,147.480 160.323,147.958 159.496 C 148.437 158.669,149.509 157.562,150.341 157.037 C 151.173 156.512,152.160 155.615,152.534 155.044 C 152.908 154.473,154.107 153.554,155.198 153.001 C 156.346 152.419,157.430 151.516,157.770 150.857 C 158.510 149.427,159.569 148.740,162.600 147.724 C 164.095 147.223,165.537 146.383,166.424 145.496 C 167.274 144.646,168.564 143.879,169.622 143.594 C 171.816 143.003,174.077 141.871,174.798 141.003 C 175.791 139.805,177.663 139.132,181.477 138.599 C 184.169 138.223,185.675 137.792,186.726 137.097 C 190.331 134.714,190.631 134.638,197.600 134.368 C 205.271 134.070,207.142 133.597,207.759 131.800 C 208.443 129.808,208.570 53.985,207.891 53.057 C 206.908 51.713,201.687 51.428,188.800 52.015 M205.180 52.833 L 207.200 53.266 207.200 90.925 C 207.200 138.147,208.402 133.306,196.564 133.780 C 190.219 134.034,187.309 134.704,185.151 136.410 C 184.049 137.281,182.865 137.701,180.201 138.166 C 176.544 138.805,173.289 140.102,172.918 141.068 C 172.669 141.718,169.943 143.200,168.996 143.200 C 168.032 143.200,165.969 144.358,164.354 145.804 C 163.559 146.517,162.006 147.400,160.901 147.766 C 158.870 148.441,157.834 149.278,157.028 150.894 C 156.783 151.385,155.795 152.075,154.821 152.434 C 153.851 152.793,152.635 153.607,152.121 154.243 C 150.793 155.884,150.751 155.922,149.200 156.913 C 148.430 157.405,147.536 158.352,147.214 159.016 C 146.892 159.681,146.082 160.579,145.414 161.013 C 144.746 161.446,143.764 162.679,143.232 163.754 C 142.638 164.951,141.736 166.019,140.901 166.511 C 139.973 167.059,139.240 167.992,138.598 169.442 C 138.081 170.612,137.033 172.194,136.269 172.958 C 134.919 174.308,134.513 175.181,133.612 178.680 C 133.324 179.802,132.770 180.652,131.945 181.239 C 130.338 182.383,129.832 183.691,128.985 188.892 C 128.395 192.509,128.104 193.387,127.134 194.474 C 125.271 196.560,124.796 198.957,124.295 208.800 C 123.385 226.682,124.408 238.015,127.321 242.322 C 127.892 243.166,128.694 245.421,129.191 247.578 C 130.141 251.705,130.688 253.013,131.942 254.147 C 132.395 254.557,133.243 256.143,133.828 257.672 C 134.629 259.769,135.218 260.666,136.227 261.326 C 137.079 261.883,137.813 262.849,138.249 263.989 C 138.626 264.973,139.691 266.593,140.616 267.589 C 141.541 268.585,142.861 270.405,143.549 271.632 C 144.237 272.860,145.270 274.116,145.843 274.423 C 146.417 274.730,147.419 275.756,148.071 276.703 C 148.723 277.650,149.949 278.863,150.796 279.397 C 151.643 279.932,152.832 281.020,153.438 281.815 C 154.072 282.645,155.573 283.774,156.970 284.470 C 158.307 285.136,160.030 286.272,160.800 286.994 C 161.570 287.716,162.920 288.532,163.800 288.807 C 166.004 289.497,168.400 290.739,168.400 291.191 C 168.400 291.742,171.579 293.476,173.200 293.809 C 174.979 294.174,176.479 294.941,177.788 296.154 C 182.655 300.665,227.314 300.427,233.922 295.856 C 234.735 295.293,236.930 294.468,238.799 294.023 C 241.065 293.482,242.733 292.809,243.799 292.005 C 244.680 291.341,246.390 290.334,247.600 289.767 C 248.810 289.200,250.238 288.526,250.772 288.268 C 251.307 288.011,252.027 287.306,252.372 286.702 C 252.785 285.980,253.643 285.389,254.877 284.977 C 255.989 284.606,257.754 283.459,259.209 282.160 C 260.560 280.955,262.356 279.533,263.201 279.000 C 264.045 278.466,264.850 277.672,264.989 277.234 C 265.128 276.796,266.146 275.773,267.252 274.962 C 268.357 274.151,269.674 272.833,270.179 272.033 C 270.684 271.234,271.952 269.700,272.997 268.624 C 274.042 267.549,275.285 265.843,275.760 264.834 C 276.234 263.826,277.173 262.458,277.846 261.795 C 278.653 261.002,279.439 259.485,280.149 257.352 C 280.799 255.401,281.637 253.733,282.256 253.157 C 283.503 251.997,283.857 251.153,284.870 246.930 C 285.302 245.131,286.020 243.241,286.466 242.730 C 288.395 240.518,288.775 238.790,289.623 228.400 C 290.291 220.197,290.230 220.370,292.823 219.312 L 295.000 218.425 332.427 218.412 L 369.855 218.400 370.429 219.612 C 371.365 221.589,370.341 233.669,368.756 239.338 C 368.089 241.723,367.275 245.773,366.947 248.338 C 366.049 255.370,365.269 259.261,364.612 259.986 C 363.761 260.927,362.895 263.582,361.825 268.532 C 361.129 271.750,360.633 273.138,359.893 273.932 C 358.535 275.390,358.168 276.206,357.614 279.000 C 356.833 282.941,355.880 285.636,355.122 286.042 C 354.250 286.508,353.320 288.250,352.541 290.875 C 352.218 291.960,351.361 293.512,350.635 294.324 C 349.035 296.113,348.513 297.073,347.760 299.609 C 347.400 300.824,346.744 301.903,346.018 302.478 C 344.845 303.408,343.092 306.480,342.592 308.484 C 342.432 309.123,341.759 309.899,340.949 310.377 C 340.072 310.894,339.305 311.821,338.823 312.947 C 338.408 313.915,337.410 315.209,336.606 315.823 C 335.802 316.436,334.716 317.781,334.194 318.811 C 333.672 319.841,332.421 321.565,331.415 322.642 C 330.408 323.719,329.218 325.353,328.770 326.272 C 328.239 327.363,327.441 328.210,326.478 328.707 C 325.665 329.126,324.493 330.219,323.874 331.135 C 323.254 332.051,322.555 332.800,322.319 332.800 C 322.084 332.800,320.791 333.867,319.446 335.172 C 314.658 339.814,311.775 342.299,309.964 343.343 C 308.954 343.925,307.559 345.026,306.864 345.789 C 306.170 346.553,304.702 347.564,303.604 348.037 C 302.358 348.572,301.314 349.367,300.831 350.148 C 300.304 350.999,299.433 351.620,298.114 352.086 C 297.041 352.465,295.051 353.743,293.663 354.946 C 292.125 356.278,290.621 357.220,289.780 357.377 C 289.026 357.519,287.628 358.311,286.673 359.137 C 285.719 359.963,284.052 360.960,282.969 361.352 C 281.886 361.744,280.501 362.254,279.892 362.484 C 279.282 362.715,278.351 363.418,277.823 364.046 C 277.167 364.825,275.902 365.501,273.843 366.173 C 270.259 367.343,269.329 367.795,268.000 369.016 C 267.021 369.914,264.814 370.655,260.400 371.566 C 259.190 371.816,257.480 372.462,256.600 373.002 C 253.565 374.864,252.507 375.159,246.564 375.808 C 239.639 376.564,235.900 377.287,233.274 378.380 C 226.346 381.264,187.695 381.270,180.972 378.388 C 179.169 377.615,173.967 376.461,167.800 375.466 C 163.886 374.835,162.735 374.439,161.185 373.189 C 160.291 372.468,156.932 371.610,151.187 370.636 C 150.410 370.504,148.843 369.697,147.706 368.843 C 146.437 367.889,144.820 367.104,143.519 366.811 C 139.669 365.943,137.412 365.096,136.465 364.162 C 135.485 363.195,133.730 362.452,129.909 361.387 C 128.245 360.923,127.386 360.423,126.773 359.562 C 126.267 358.852,124.857 357.890,123.264 357.168 C 121.799 356.504,120.060 355.439,119.400 354.801 C 118.740 354.163,117.300 353.260,116.200 352.795 C 112.913 351.404,112.506 351.151,112.093 350.244 C 111.875 349.766,110.852 348.941,109.818 348.409 C 108.784 347.878,107.490 346.910,106.942 346.258 C 106.394 345.606,105.192 344.534,104.272 343.875 C 103.353 343.215,101.399 341.551,99.932 340.175 C 98.464 338.800,96.898 337.558,96.452 337.416 C 96.005 337.275,95.272 336.564,94.822 335.836 C 94.373 335.109,93.213 334.094,92.245 333.580 C 91.002 332.921,90.242 332.148,89.660 330.948 C 89.206 330.014,88.293 328.849,87.630 328.359 C 86.968 327.870,85.813 326.553,85.064 325.434 C 84.315 324.316,82.792 322.458,81.680 321.307 C 80.568 320.156,79.551 318.875,79.419 318.461 C 79.288 318.048,78.306 316.972,77.238 316.071 C 76.169 315.170,75.175 313.956,75.029 313.375 C 74.656 311.888,73.660 310.473,72.792 310.198 C 72.332 310.052,71.644 308.883,70.956 307.082 C 70.226 305.169,69.289 303.616,68.170 302.464 C 67.092 301.353,66.296 300.057,65.964 298.870 C 65.672 297.828,64.802 296.307,63.982 295.406 C 62.583 293.870,61.811 292.183,60.833 288.529 C 60.587 287.610,59.788 286.143,59.058 285.269 C 57.518 283.426,57.014 282.262,56.399 279.125 C 56.154 277.873,55.520 276.253,54.990 275.525 C 54.460 274.796,53.723 273.784,53.352 273.276 C 52.955 272.734,52.382 270.419,51.962 267.665 C 51.169 262.462,50.801 261.248,49.394 259.200 C 48.355 257.687,47.558 253.768,46.789 246.400 C 46.281 241.525,45.413 237.007,44.619 235.107 C 43.393 232.172,43.059 227.150,43.082 212.000 C 43.107 195.399,43.406 191.983,45.154 188.251 C 46.473 185.436,47.597 180.230,47.606 176.892 C 47.615 173.630,48.531 170.130,49.706 168.869 C 51.234 167.229,51.540 166.392,52.187 162.090 C 52.929 157.144,53.008 156.923,54.655 155.186 C 55.727 154.054,56.166 153.055,56.849 150.186 C 57.558 147.207,57.925 146.397,59.017 145.400 C 60.621 143.936,60.904 143.362,61.775 139.800 C 62.343 137.480,62.673 136.863,63.698 136.200 C 64.568 135.638,65.255 134.605,66.013 132.724 C 66.605 131.252,67.811 129.229,68.692 128.228 C 69.599 127.197,70.517 125.611,70.808 124.570 C 71.210 123.136,71.666 122.516,72.884 121.747 C 73.924 121.091,74.701 120.163,75.213 118.969 C 75.636 117.983,76.613 116.596,77.384 115.888 C 78.154 115.180,79.381 113.482,80.110 112.116 C 80.905 110.626,81.988 109.265,82.817 108.715 C 83.578 108.211,84.560 107.044,85.000 106.122 C 85.465 105.148,86.244 104.254,86.860 103.990 C 88.176 103.426,89.435 102.115,89.920 100.804 C 90.123 100.256,90.984 99.446,91.833 99.004 C 92.743 98.530,93.739 97.554,94.258 96.627 C 94.743 95.762,95.648 94.796,96.270 94.480 C 97.771 93.716,99.600 91.981,99.600 91.320 C 99.600 91.029,100.545 90.369,101.700 89.855 C 102.855 89.341,104.700 88.109,105.800 87.118 C 106.900 86.127,108.430 84.999,109.200 84.610 C 111.019 83.692,112.013 82.806,112.422 81.738 C 112.637 81.176,113.559 80.573,115.073 80.007 C 116.350 79.529,118.004 78.529,118.749 77.785 C 119.632 76.901,121.022 76.136,122.751 75.580 C 125.098 74.825,127.136 73.391,127.650 72.132 C 127.733 71.930,129.330 71.367,131.200 70.881 C 134.127 70.121,134.795 69.780,136.000 68.431 C 137.280 66.998,137.705 66.804,140.951 66.167 C 143.969 65.575,144.762 65.245,146.241 63.965 C 147.636 62.757,148.597 62.327,151.090 61.792 C 156.514 60.629,157.107 60.414,158.809 58.992 C 159.726 58.227,160.594 57.598,160.738 57.595 C 167.563 57.466,176.496 56.036,180.774 54.386 C 185.340 52.625,199.893 51.699,205.180 52.833 M201.703 164.017 C 200.550 164.224,198.314 164.844,196.735 165.396 C 195.155 165.948,192.241 166.681,190.259 167.024 C 186.099 167.746,184.429 168.368,182.667 169.850 C 181.974 170.434,180.618 171.249,179.655 171.662 C 176.932 172.829,168.167 180.812,166.431 183.705 C 165.935 184.533,165.184 185.395,164.762 185.620 C 164.341 185.846,163.437 187.148,162.754 188.515 C 162.071 189.882,161.072 191.585,160.535 192.300 C 159.238 194.028,158.662 195.497,157.596 199.800 C 157.106 201.780,156.233 204.300,155.656 205.400 C 153.993 208.572,154.106 215.078,155.892 219.000 C 156.793 220.977,157.351 223.094,157.791 226.200 C 158.376 230.329,159.680 235.257,160.446 236.233 C 160.633 236.471,161.666 238.454,162.741 240.640 C 163.816 242.826,165.018 244.882,165.414 245.207 C 165.809 245.533,166.713 246.700,167.423 247.800 C 168.703 249.785,174.791 256.000,175.454 256.000 C 175.645 256.000,176.549 256.675,177.465 257.500 C 180.008 259.792,188.340 263.829,192.600 264.833 C 194.580 265.300,197.962 266.113,200.116 266.641 C 206.430 268.187,208.028 268.051,222.000 264.775 C 223.870 264.337,226.210 263.561,227.200 263.051 C 234.163 259.466,236.298 258.244,237.000 257.446 C 237.440 256.946,238.513 256.018,239.384 255.384 C 241.610 253.764,246.205 249.196,246.811 248.000 C 247.090 247.450,247.759 246.460,248.297 245.800 C 252.023 241.232,255.156 233.704,256.416 226.289 C 256.886 223.521,257.662 220.532,258.203 219.400 C 260.202 215.221,260.226 208.644,258.256 204.400 C 257.695 203.190,256.797 200.560,256.261 198.555 C 255.193 194.559,254.763 193.579,253.308 191.831 C 252.773 191.188,251.918 189.796,251.408 188.739 C 250.266 186.374,248.089 183.750,243.400 179.093 C 237.653 173.385,237.011 172.849,234.684 171.820 C 233.472 171.284,231.854 170.296,231.089 169.625 C 230.179 168.825,228.819 168.194,227.149 167.796 C 222.257 166.630,216.984 165.268,214.800 164.605 C 212.191 163.814,204.714 163.478,201.703 164.017 M212.600 166.015 C 216.389 167.137,219.950 167.924,223.242 168.367 C 227.065 168.881,228.144 169.294,230.317 171.074 C 231.275 171.859,232.808 172.723,233.723 172.993 C 234.639 173.264,236.201 174.235,237.194 175.152 C 242.801 180.328,245.965 183.537,246.508 184.600 C 246.846 185.260,247.659 186.195,248.316 186.679 C 249.027 187.202,249.762 188.297,250.133 189.384 C 250.475 190.389,251.371 191.973,252.125 192.905 C 254.049 195.286,254.329 195.938,255.038 199.677 C 255.384 201.497,256.281 204.561,257.033 206.485 C 258.722 210.808,258.817 213.421,257.436 217.652 C 256.905 219.277,256.174 222.765,255.811 225.403 C 254.942 231.724,254.085 235.038,252.979 236.352 C 252.482 236.943,251.347 238.960,250.456 240.834 C 249.565 242.709,248.449 244.593,247.975 245.021 C 247.501 245.450,246.679 246.657,246.148 247.704 C 245.617 248.751,244.479 250.117,243.619 250.740 C 242.759 251.363,241.571 252.448,240.980 253.151 C 240.389 253.854,239.418 254.680,238.824 254.988 C 238.230 255.295,237.107 256.202,236.329 257.002 C 235.510 257.846,233.635 259.015,231.873 259.781 C 230.199 260.508,228.301 261.549,227.654 262.093 C 225.808 263.646,209.249 266.984,205.600 266.538 C 198.591 265.682,188.501 263.412,187.200 262.398 C 186.650 261.970,184.690 260.895,182.845 260.010 C 180.999 259.124,178.709 257.680,177.754 256.800 C 176.799 255.920,175.835 255.200,175.611 255.200 C 174.943 255.200,168.536 248.660,168.216 247.652 C 168.054 247.140,167.264 246.063,166.461 245.260 C 165.638 244.437,164.329 242.314,163.464 240.399 C 162.620 238.530,161.514 236.370,161.008 235.600 C 159.670 233.566,158.915 230.760,158.424 226.000 C 158.185 223.690,157.422 219.550,156.728 216.800 L 155.466 211.800 156.927 207.800 C 157.730 205.600,158.657 202.219,158.987 200.286 C 159.643 196.440,159.854 195.922,161.802 193.370 C 162.528 192.419,163.423 190.734,163.791 189.626 C 164.224 188.324,164.882 187.311,165.652 186.763 C 166.308 186.296,167.290 185.207,167.836 184.343 C 169.134 182.287,173.343 178.083,175.455 176.732 C 176.374 176.145,177.235 175.319,177.369 174.896 C 177.630 174.076,178.338 173.661,181.209 172.644 C 182.204 172.292,183.562 171.508,184.226 170.902 C 185.932 169.345,187.053 168.921,190.857 168.389 C 192.696 168.132,195.910 167.464,198.000 166.904 C 206.339 164.669,207.760 164.583,212.600 166.015 " stroke="none" fill="#848486" fill-rule="evenodd"></path><path id="path4" d="M180.991 50.396 C 177.095 50.738,174.927 51.393,173.600 52.627 C 171.718 54.378,169.987 54.800,164.685 54.800 C 158.965 54.800,156.003 55.484,154.425 57.171 C 152.988 58.707,152.144 59.080,149.400 59.391 C 145.748 59.805,144.536 60.313,143.209 61.988 C 142.100 63.388,141.777 63.546,139.497 63.795 C 136.564 64.115,133.739 65.333,133.391 66.427 C 133.085 67.393,132.378 67.761,129.600 68.401 C 126.588 69.094,125.301 69.814,124.388 71.317 C 123.707 72.436,123.202 72.694,120.314 73.397 C 117.383 74.111,116.914 74.355,116.082 75.600 C 115.568 76.370,114.754 77.198,114.274 77.441 C 113.793 77.684,112.728 78.205,111.907 78.600 C 111.063 79.006,110.196 79.813,109.910 80.459 C 109.632 81.087,109.224 81.600,109.002 81.600 C 107.923 81.601,103.650 84.056,102.496 85.339 C 101.778 86.136,100.473 87.154,99.596 87.602 C 98.709 88.055,97.556 89.119,97.001 89.998 C 96.452 90.868,95.360 91.909,94.573 92.313 C 93.764 92.728,92.760 93.731,92.260 94.623 C 91.711 95.603,90.803 96.471,89.861 96.916 C 88.875 97.382,88.154 98.091,87.796 98.948 C 87.222 100.321,86.495 101.080,85.068 101.791 C 84.603 102.023,83.696 102.996,83.052 103.954 C 82.409 104.913,81.281 106.051,80.546 106.485 C 79.807 106.921,78.744 108.129,78.167 109.189 C 77.594 110.243,76.585 111.504,75.926 111.992 C 74.721 112.882,72.811 116.383,72.804 117.713 C 72.802 118.107,72.149 118.811,71.347 119.285 C 70.318 119.891,69.616 120.769,68.945 122.285 C 68.292 123.761,67.568 124.682,66.617 125.243 C 65.311 126.014,63.600 129.268,63.600 130.982 C 63.600 132.073,63.084 132.839,61.958 133.422 C 60.542 134.154,59.910 135.375,59.005 139.132 C 58.436 141.494,58.108 142.150,57.317 142.511 C 56.030 143.097,55.027 145.165,54.408 148.506 C 53.995 150.738,53.704 151.356,52.748 152.037 C 51.122 153.195,50.472 154.666,50.181 157.848 C 49.842 161.562,49.315 163.123,47.804 164.897 C 46.179 166.804,45.719 168.442,45.415 173.400 C 45.061 179.170,44.898 179.861,43.514 181.436 C 41.288 183.972,41.156 185.165,40.743 206.400 C 40.200 234.318,40.996 247.490,43.376 249.975 C 44.455 251.101,44.934 253.054,45.394 258.200 C 45.735 262.011,46.645 265.052,48.024 266.984 C 48.893 268.203,49.336 269.531,49.825 272.392 C 50.548 276.614,51.162 278.103,52.820 279.653 C 53.507 280.295,54.047 281.309,54.206 282.253 C 54.836 286.005,55.684 288.169,57.000 289.377 C 58.066 290.355,58.476 291.201,59.043 293.600 C 59.669 296.242,59.983 296.826,61.677 298.488 C 62.735 299.526,63.602 300.696,63.604 301.088 C 63.611 302.438,65.510 305.882,66.723 306.745 C 67.550 307.334,68.152 308.283,68.602 309.706 C 69.029 311.056,69.767 312.256,70.680 313.083 C 71.458 313.789,72.495 315.229,72.984 316.283 C 73.473 317.337,74.687 319.010,75.682 320.000 C 76.676 320.990,77.962 322.557,78.539 323.483 C 79.116 324.408,79.996 325.383,80.494 325.648 C 81.608 326.242,82.245 327.018,82.976 328.676 C 83.286 329.377,84.253 330.402,85.126 330.953 C 86.012 331.513,87.041 332.627,87.456 333.477 C 87.936 334.459,88.766 335.292,89.793 335.823 C 90.750 336.318,91.692 337.228,92.153 338.104 C 92.668 339.083,93.423 339.762,94.451 340.174 C 95.416 340.560,96.342 341.358,96.960 342.337 C 97.499 343.191,98.738 344.356,99.713 344.928 C 100.688 345.500,101.787 346.426,102.155 346.987 C 102.522 347.548,103.800 348.656,104.993 349.448 C 106.186 350.240,107.927 351.594,108.861 352.456 C 109.926 353.439,111.343 354.252,112.661 354.635 C 114.274 355.104,114.954 355.555,115.585 356.575 C 116.386 357.872,118.121 358.838,121.700 359.983 C 122.525 360.246,123.200 360.602,123.200 360.773 C 123.200 361.683,125.362 363.183,127.816 363.976 C 129.480 364.513,131.162 365.395,132.045 366.193 C 133.696 367.684,133.695 367.684,138.482 368.738 C 141.448 369.392,142.160 369.712,143.283 370.904 C 144.336 372.020,145.086 372.391,147.001 372.745 C 148.321 372.988,150.359 373.364,151.530 373.579 C 152.943 373.839,154.123 374.376,155.032 375.175 C 156.539 376.498,159.308 377.405,163.000 377.787 C 167.512 378.252,169.769 378.849,170.846 379.862 C 172.683 381.591,175.040 381.975,187.722 382.613 C 194.300 382.944,200.968 383.423,202.540 383.678 C 206.203 384.271,207.497 384.271,211.347 383.679 C 213.078 383.413,218.568 383.013,223.547 382.790 C 238.637 382.115,242.953 381.480,244.989 379.639 C 246.008 378.717,246.767 378.544,252.200 378.003 C 258.041 377.421,259.537 376.979,261.030 375.396 C 262.107 374.254,262.759 373.981,265.755 373.420 C 270.167 372.593,271.014 372.261,272.777 370.668 C 273.668 369.864,275.315 369.023,277.108 368.457 C 279.312 367.761,280.237 367.235,280.987 366.252 C 281.765 365.232,282.625 364.766,285.086 364.031 C 287.563 363.290,288.494 362.782,289.639 361.550 C 290.430 360.697,291.330 360.000,291.639 360.000 C 292.956 359.999,297.074 357.641,298.094 356.303 C 298.788 355.393,299.788 354.688,300.877 354.341 C 302.039 353.971,302.870 353.357,303.505 352.400 C 304.109 351.489,305.045 350.773,306.183 350.351 C 308.161 349.618,310.217 348.250,311.400 346.881 C 311.840 346.372,313.096 345.470,314.190 344.878 C 315.285 344.285,316.372 343.414,316.606 342.943 C 317.317 341.509,318.074 340.780,319.445 340.207 C 320.292 339.853,321.046 339.086,321.585 338.029 C 322.132 336.958,322.924 336.158,323.895 335.699 C 324.715 335.311,325.883 334.240,326.518 333.292 C 327.148 332.353,328.234 331.346,328.932 331.054 C 329.629 330.762,330.446 330.001,330.746 329.362 C 331.047 328.723,331.421 327.930,331.579 327.600 C 331.736 327.270,332.544 326.553,333.373 326.007 C 334.288 325.404,335.278 324.224,335.890 323.007 C 336.444 321.903,337.761 320.082,338.815 318.960 C 339.914 317.790,340.941 316.223,341.222 315.285 C 341.582 314.084,342.024 313.521,342.893 313.162 C 343.631 312.856,344.301 312.135,344.681 311.236 C 346.024 308.060,346.516 307.276,347.418 306.864 C 348.691 306.284,349.725 304.140,350.561 300.341 C 350.701 299.708,351.341 298.960,352.154 298.480 C 353.541 297.662,354.803 295.123,355.397 291.959 C 355.575 291.006,356.020 290.374,356.844 289.901 C 358.278 289.077,358.951 287.555,359.596 283.672 C 359.985 281.328,360.322 280.498,361.287 279.511 C 362.744 278.021,363.433 276.456,363.802 273.800 C 364.277 270.379,365.181 267.757,366.224 266.778 C 367.530 265.550,368.303 262.701,368.603 258.000 C 368.914 253.126,369.501 250.418,370.478 249.344 C 372.312 247.328,372.836 244.087,373.248 232.200 C 373.708 218.923,373.460 216.587,371.362 214.485 L 370.050 213.170 331.325 213.286 C 283.415 213.429,287.864 212.357,287.166 223.917 C 286.699 231.644,286.523 232.633,285.194 235.000 C 283.971 237.180,283.488 238.748,282.371 244.165 C 281.741 247.219,281.431 247.940,280.203 249.196 C 279.038 250.390,278.577 251.384,277.727 254.532 C 277.106 256.834,276.478 258.400,276.177 258.400 C 275.518 258.400,273.600 260.684,273.600 261.469 C 273.600 262.455,272.339 264.299,271.359 264.746 C 270.859 264.974,269.828 266.133,269.068 267.321 C 268.307 268.510,266.553 270.544,265.169 271.841 C 263.785 273.139,261.669 275.145,260.465 276.300 C 259.262 277.455,258.045 278.400,257.762 278.400 C 257.479 278.400,256.489 279.300,255.561 280.400 C 254.634 281.500,253.615 282.400,253.298 282.400 C 252.125 282.400,249.948 283.741,249.399 284.802 C 248.941 285.688,248.188 286.097,245.428 286.957 C 242.569 287.848,241.825 288.264,240.794 289.548 C 239.623 291.005,239.402 291.099,236.083 291.567 C 231.175 292.260,228.369 293.107,227.145 294.265 C 225.434 295.884,223.701 296.078,209.082 296.286 C 192.668 296.520,188.533 296.193,185.420 294.411 C 184.274 293.756,181.466 292.791,178.993 292.204 C 173.110 290.806,173.275 290.868,172.990 289.969 C 172.627 288.826,171.120 287.970,167.771 287.004 C 165.355 286.307,164.660 285.915,163.912 284.827 C 163.317 283.962,162.317 283.245,161.037 282.765 C 159.944 282.356,158.396 281.325,157.547 280.441 C 156.708 279.568,155.226 278.306,154.254 277.637 C 153.282 276.968,151.282 274.976,149.809 273.211 C 148.336 271.445,146.992 270.000,146.821 270.000 C 146.651 270.000,145.926 268.902,145.211 267.560 C 144.381 266.004,143.422 264.832,142.561 264.324 C 141.587 263.749,141.091 263.080,140.778 261.918 C 140.317 260.206,138.817 258.400,137.857 258.400 C 137.483 258.400,136.978 257.374,136.429 255.500 C 135.265 251.520,134.596 250.147,133.464 249.405 C 132.482 248.762,132.229 247.845,130.811 239.800 C 130.551 238.326,129.844 236.518,128.978 235.114 C 127.108 232.082,126.804 229.288,126.813 215.200 C 126.820 202.823,126.916 202.103,128.902 199.501 C 130.489 197.423,131.200 194.855,131.200 191.206 C 131.200 188.249,131.648 187.072,133.562 184.995 C 134.629 183.838,135.239 182.690,135.596 181.171 C 136.261 178.340,136.646 177.621,138.199 176.317 C 139.536 175.194,140.061 174.181,140.791 171.320 C 141.121 170.029,141.605 169.380,142.878 168.520 C 143.939 167.803,144.702 166.901,145.000 166.011 C 145.288 165.148,146.102 164.164,147.151 163.411 C 148.078 162.745,149.182 161.621,149.604 160.914 C 150.026 160.207,151.092 159.173,151.974 158.616 C 152.856 158.060,153.860 157.058,154.205 156.390 C 154.629 155.570,155.521 154.871,156.946 154.241 C 158.506 153.551,159.194 152.979,159.577 152.056 C 159.982 151.077,160.454 150.716,161.747 150.396 C 165.050 149.578,166.990 148.589,167.800 147.309 C 168.686 145.910,169.508 145.508,172.905 144.812 C 174.838 144.416,175.414 144.087,176.472 142.771 C 177.863 141.039,179.470 140.406,182.480 140.402 C 185.281 140.399,188.205 139.661,189.685 138.583 C 190.408 138.057,191.396 137.336,191.880 136.980 C 192.561 136.480,194.319 136.262,199.680 136.011 C 211.523 135.457,210.175 140.891,210.318 93.115 C 210.449 49.209,210.600 51.744,207.786 50.568 C 206.309 49.951,187.447 49.830,180.991 50.396 M204.378 51.980 C 206.522 52.228,207.505 52.529,207.891 53.057 C 208.570 53.985,208.443 129.808,207.759 131.800 C 207.142 133.597,205.271 134.070,197.600 134.368 C 190.631 134.638,190.331 134.714,186.726 137.097 C 185.675 137.792,184.169 138.223,181.477 138.599 C 177.663 139.132,175.791 139.805,174.798 141.003 C 174.077 141.871,171.816 143.003,169.622 143.594 C 168.564 143.879,167.274 144.646,166.424 145.496 C 165.537 146.383,164.095 147.223,162.600 147.724 C 159.569 148.740,158.510 149.427,157.770 150.857 C 157.430 151.516,156.346 152.419,155.198 153.001 C 154.107 153.554,152.908 154.473,152.534 155.044 C 152.160 155.615,151.173 156.512,150.341 157.037 C 149.509 157.562,148.437 158.669,147.958 159.496 C 147.480 160.323,146.529 161.360,145.844 161.800 C 145.160 162.240,144.268 163.281,143.861 164.112 C 143.455 164.944,142.406 166.200,141.531 166.903 C 140.472 167.754,139.501 169.122,138.628 170.991 C 137.906 172.536,136.837 174.239,136.252 174.775 C 135.594 175.379,134.890 176.756,134.402 178.395 C 133.929 179.983,133.076 181.671,132.269 182.620 C 130.270 184.969,130.050 185.561,129.442 190.222 C 129.032 193.372,128.665 194.771,128.045 195.547 C 125.270 199.020,124.653 202.562,125.001 213.000 C 125.531 228.861,126.293 235.036,128.178 238.757 C 128.751 239.887,129.674 242.744,130.230 245.106 C 131.005 248.404,131.601 249.940,132.797 251.729 C 133.654 253.010,134.656 254.990,135.024 256.129 C 135.440 257.415,136.342 258.882,137.405 260.000 C 138.347 260.990,139.477 262.520,139.916 263.400 C 140.355 264.280,141.121 265.360,141.618 265.800 C 142.115 266.240,143.313 267.815,144.281 269.301 C 147.569 274.349,154.853 281.427,158.800 283.408 C 160.010 284.015,161.763 285.183,162.696 286.003 C 163.629 286.823,165.225 287.727,166.243 288.012 C 167.261 288.297,169.108 289.292,170.347 290.223 C 171.586 291.154,173.680 292.278,175.000 292.720 C 176.320 293.162,178.582 294.068,180.026 294.733 C 189.374 299.034,221.987 299.132,230.800 294.884 C 232.230 294.195,234.978 293.283,236.906 292.858 C 238.834 292.432,240.814 291.789,241.306 291.429 C 241.798 291.068,242.802 290.336,243.537 289.802 C 244.273 289.267,245.893 288.451,247.137 287.989 C 248.382 287.526,250.030 286.549,250.800 285.816 C 251.570 285.084,252.991 284.089,253.957 283.605 C 254.923 283.122,256.543 281.971,257.557 281.048 C 258.571 280.125,260.120 278.845,261.000 278.204 C 261.880 277.563,263.253 276.307,264.052 275.413 C 264.850 274.519,265.981 273.531,266.565 273.218 C 267.149 272.906,268.020 272.015,268.499 271.239 C 268.979 270.463,270.430 268.564,271.725 267.018 C 273.020 265.473,274.356 263.666,274.694 263.004 C 275.032 262.342,275.891 261.150,276.603 260.356 C 277.396 259.471,278.306 257.684,278.953 255.742 C 279.533 253.998,280.567 251.895,281.249 251.067 C 282.100 250.034,282.806 248.404,283.493 245.880 C 284.044 243.856,285.004 241.210,285.625 240.000 C 287.005 237.314,287.867 232.756,288.359 225.547 C 289.099 214.702,285.193 215.568,332.802 215.698 L 370.184 215.800 371.192 217.600 C 373.016 220.858,372.173 237.874,369.842 244.855 C 369.081 247.135,368.171 250.980,367.821 253.400 C 366.818 260.341,366.398 262.063,365.189 264.200 C 364.566 265.300,363.598 268.057,363.037 270.326 C 362.373 273.012,361.528 275.247,360.619 276.726 C 359.705 278.214,358.933 280.265,358.385 282.659 C 357.732 285.510,357.255 286.658,356.225 287.863 C 355.498 288.712,354.401 290.666,353.789 292.204 C 353.177 293.742,352.075 295.706,351.341 296.568 C 350.607 297.431,349.631 299.141,349.173 300.368 C 348.714 301.596,347.653 303.500,346.814 304.600 C 345.976 305.700,344.835 307.500,344.279 308.600 C 343.724 309.700,342.534 311.312,341.635 312.181 C 340.736 313.051,340.000 313.981,340.000 314.249 C 340.000 314.517,339.132 315.695,338.072 316.868 C 337.011 318.040,335.583 319.990,334.897 321.200 C 334.212 322.410,332.997 324.030,332.198 324.800 C 331.399 325.570,330.364 326.875,329.899 327.700 C 329.434 328.525,328.892 329.200,328.696 329.200 C 328.500 329.200,327.118 330.415,325.626 331.900 C 319.941 337.555,314.062 342.885,311.972 344.278 C 310.777 345.074,309.105 346.345,308.256 347.102 C 307.407 347.858,306.083 348.741,305.314 349.062 C 304.545 349.383,303.104 350.446,302.113 351.423 C 301.122 352.400,300.072 353.200,299.780 353.200 C 299.488 353.200,297.843 354.257,296.125 355.550 C 294.406 356.842,292.073 358.296,290.939 358.782 C 289.806 359.267,288.471 360.099,287.973 360.629 C 287.475 361.159,285.612 362.154,283.834 362.840 C 282.056 363.526,279.951 364.674,279.156 365.392 C 278.335 366.134,276.561 367.080,275.050 367.583 C 273.587 368.070,271.487 369.089,270.384 369.848 C 269.035 370.776,267.103 371.559,264.489 372.238 C 262.350 372.793,259.790 373.756,258.800 374.378 C 256.521 375.809,255.035 376.258,250.800 376.795 C 246.010 377.402,243.450 377.940,240.000 379.064 C 235.748 380.449,230.816 381.105,221.078 381.582 C 216.415 381.810,211.520 382.095,210.200 382.215 C 202.112 382.952,178.845 380.767,173.800 378.798 C 172.260 378.197,169.290 377.402,167.200 377.032 C 162.830 376.258,160.006 375.413,158.164 374.326 C 157.455 373.907,154.796 373.054,152.256 372.430 C 149.717 371.807,147.045 370.922,146.320 370.464 C 143.555 368.719,142.109 368.091,139.301 367.413 C 137.564 366.995,135.725 366.224,134.715 365.493 C 133.788 364.821,131.594 363.764,129.839 363.143 C 127.760 362.408,126.153 361.536,125.225 360.638 C 124.441 359.881,122.745 358.798,121.455 358.233 C 120.166 357.667,118.464 356.637,117.674 355.943 C 116.883 355.249,115.299 354.252,114.152 353.727 C 113.006 353.202,111.558 352.262,110.934 351.637 C 110.310 351.013,109.033 350.026,108.096 349.443 C 107.158 348.861,105.422 347.533,104.237 346.492 C 103.051 345.452,100.599 343.340,98.786 341.800 C 96.973 340.260,94.541 338.100,93.381 337.000 C 92.221 335.900,90.671 334.439,89.936 333.754 C 89.201 333.069,87.430 331.117,86.000 329.417 C 84.570 327.716,82.579 325.397,81.576 324.263 C 80.572 323.128,79.104 321.300,78.312 320.200 C 77.520 319.100,76.389 317.750,75.797 317.200 C 75.206 316.650,74.372 315.517,73.944 314.682 C 73.516 313.847,72.567 312.497,71.836 311.682 C 71.104 310.867,70.023 309.174,69.433 307.920 C 68.843 306.665,67.674 304.809,66.836 303.794 C 65.998 302.780,65.107 301.267,64.857 300.433 C 64.607 299.598,63.685 298.100,62.808 297.104 C 61.677 295.819,60.907 294.342,60.158 292.019 C 59.577 290.218,58.699 288.262,58.207 287.672 C 56.948 286.163,56.119 284.436,55.562 282.160 C 55.029 279.983,54.103 277.976,52.628 275.803 C 52.089 275.009,51.446 273.334,51.198 272.080 C 50.347 267.771,49.566 265.005,48.634 263.004 C 47.390 260.332,46.931 258.744,46.435 255.400 C 46.206 253.860,45.563 250.620,45.004 248.200 C 42.470 237.223,41.289 227.267,41.745 220.741 C 41.874 218.903,42.150 211.730,42.360 204.800 C 42.776 191.071,43.078 188.654,44.802 185.256 C 46.686 181.543,46.860 180.824,47.212 175.304 C 47.531 170.300,48.246 167.600,49.254 167.600 C 50.128 167.600,51.189 164.601,51.802 160.400 C 52.495 155.652,52.651 155.264,54.492 153.681 C 55.599 152.730,56.122 151.295,56.578 147.964 C 56.783 146.473,57.198 145.752,58.788 144.128 C 60.597 142.281,60.768 141.934,61.035 139.568 C 61.304 137.198,61.465 136.872,63.194 135.204 C 64.703 133.748,65.228 132.857,65.917 130.586 C 66.569 128.436,67.067 127.553,68.027 126.844 C 68.717 126.333,69.631 125.127,70.057 124.163 C 70.484 123.200,71.566 121.824,72.463 121.106 C 73.454 120.312,74.454 118.987,75.012 117.729 C 75.517 116.590,76.643 114.880,77.513 113.929 C 78.384 112.978,79.484 111.434,79.958 110.498 C 80.431 109.561,81.436 108.391,82.191 107.898 C 82.945 107.404,83.947 106.317,84.417 105.483 C 84.886 104.648,85.988 103.512,86.866 102.958 C 87.779 102.382,88.702 101.376,89.024 100.605 C 89.377 99.758,90.197 98.915,91.234 98.333 C 92.212 97.783,93.187 96.809,93.631 95.939 C 94.088 95.043,95.041 94.106,96.075 93.535 C 97.007 93.021,98.183 91.985,98.689 91.234 C 99.195 90.482,100.357 89.533,101.271 89.124 C 102.185 88.715,103.668 87.706,104.566 86.882 C 105.465 86.059,107.234 84.864,108.499 84.228 C 109.921 83.512,111.081 82.590,111.542 81.809 C 112.014 81.008,113.093 80.166,114.496 79.501 C 115.712 78.925,117.097 77.907,117.573 77.237 C 118.152 76.425,118.999 75.879,120.120 75.596 C 123.621 74.712,125.100 73.957,126.330 72.427 C 127.459 71.023,127.846 70.831,130.423 70.396 C 133.056 69.952,133.406 69.771,135.093 67.984 C 136.820 66.154,137.058 66.036,139.559 65.776 C 142.653 65.454,143.313 65.170,145.231 63.339 C 146.465 62.161,147.209 61.862,150.630 61.174 C 153.387 60.619,155.067 60.044,156.136 59.288 C 159.503 56.908,160.054 56.755,166.497 56.416 C 172.677 56.090,174.708 55.641,177.524 53.980 C 180.589 52.172,196.072 51.019,204.378 51.980 M200.565 162.013 C 196.948 162.311,194.993 162.971,193.385 164.437 C 192.835 164.938,191.028 165.440,187.834 165.978 C 182.860 166.815,181.449 167.416,180.723 169.008 C 180.424 169.665,179.629 170.188,178.242 170.642 C 176.937 171.069,175.451 172.011,174.124 173.255 C 172.982 174.325,171.893 175.200,171.703 175.200 C 171.051 175.200,166.331 180.167,165.575 181.649 C 165.159 182.465,164.281 183.515,163.625 183.982 C 162.843 184.539,162.140 185.631,161.587 187.147 C 161.007 188.739,160.392 189.668,159.617 190.126 C 158.334 190.884,157.398 192.923,157.005 195.815 C 156.606 198.752,156.002 200.435,154.786 202.000 C 151.736 205.926,151.863 221.461,155.001 228.315 C 155.564 229.543,156.480 232.349,157.038 234.549 C 158.206 239.157,158.937 241.060,159.975 242.195 C 160.380 242.638,161.204 243.983,161.806 245.185 C 164.218 250.003,173.477 259.305,178.287 261.743 C 179.418 262.316,180.458 262.971,180.599 263.198 C 181.068 263.958,183.839 265.143,187.638 266.208 C 189.707 266.789,191.954 267.605,192.630 268.022 C 197.465 270.999,217.652 270.980,221.691 267.996 C 222.291 267.552,224.361 266.761,226.291 266.237 C 230.915 264.982,232.004 264.535,233.200 263.400 C 233.750 262.878,235.017 262.103,236.016 261.676 C 240.134 259.917,250.390 249.481,252.398 245.005 C 252.991 243.682,253.799 242.333,254.193 242.006 C 255.136 241.223,256.139 238.827,257.236 234.734 C 257.727 232.900,258.356 231.040,258.633 230.600 C 262.061 225.160,262.426 204.254,259.155 200.751 C 257.981 199.495,257.540 198.299,256.785 194.324 C 256.328 191.917,255.280 190.206,254.015 189.805 C 253.534 189.652,253.003 188.793,252.579 187.481 C 252.206 186.327,251.248 184.687,250.429 183.800 C 249.617 182.920,248.201 181.198,247.284 179.973 C 246.366 178.749,244.847 177.130,243.908 176.376 C 242.969 175.623,241.273 174.168,240.140 173.143 C 238.739 171.876,237.385 171.078,235.908 170.649 C 234.332 170.191,233.613 169.746,233.286 169.030 C 232.557 167.429,231.162 166.818,226.410 166.019 C 223.189 165.477,221.675 165.034,221.054 164.451 C 218.511 162.062,210.934 161.160,200.565 162.013 M214.800 164.605 C 216.984 165.268,222.257 166.630,227.149 167.796 C 228.819 168.194,230.179 168.825,231.089 169.625 C 231.854 170.296,233.472 171.284,234.684 171.820 C 237.011 172.849,237.653 173.385,243.400 179.093 C 248.089 183.750,250.266 186.374,251.408 188.739 C 251.918 189.796,252.773 191.188,253.308 191.831 C 254.763 193.579,255.193 194.559,256.261 198.555 C 256.797 200.560,257.695 203.190,258.256 204.400 C 260.226 208.644,260.202 215.221,258.203 219.400 C 257.662 220.532,256.886 223.521,256.416 226.289 C 255.156 233.704,252.023 241.232,248.297 245.800 C 247.759 246.460,247.090 247.450,246.811 248.000 C 246.205 249.196,241.610 253.764,239.384 255.384 C 238.513 256.018,237.440 256.946,237.000 257.446 C 236.298 258.244,234.163 259.466,227.200 263.051 C 226.210 263.561,223.870 264.337,222.000 264.775 C 208.028 268.051,206.430 268.187,200.116 266.641 C 197.962 266.113,194.580 265.300,192.600 264.833 C 188.340 263.829,180.008 259.792,177.465 257.500 C 176.549 256.675,175.645 256.000,175.454 256.000 C 174.791 256.000,168.703 249.785,167.423 247.800 C 166.713 246.700,165.809 245.533,165.414 245.207 C 165.018 244.882,163.816 242.826,162.741 240.640 C 161.666 238.454,160.633 236.471,160.446 236.233 C 159.680 235.257,158.376 230.329,157.791 226.200 C 157.351 223.094,156.793 220.977,155.892 219.000 C 154.106 215.078,153.993 208.572,155.656 205.400 C 156.233 204.300,157.106 201.780,157.596 199.800 C 158.662 195.497,159.238 194.028,160.535 192.300 C 161.072 191.585,162.071 189.882,162.754 188.515 C 163.437 187.148,164.341 185.846,164.762 185.620 C 165.184 185.395,165.935 184.533,166.431 183.705 C 168.167 180.812,176.932 172.829,179.655 171.662 C 180.618 171.249,181.974 170.434,182.667 169.850 C 184.429 168.368,186.099 167.746,190.259 167.024 C 192.241 166.681,195.155 165.948,196.735 165.396 C 202.192 163.489,209.995 163.148,214.800 164.605 " stroke="none" fill="#58676f" fill-rule="evenodd"></path></g></svg>